<mxfile host="app.diagrams.net" agent="Mozilla/5.0 (Macintosh; Intel Mac OS X 10_15_7) AppleWebKit/537.36 (KHTML, like Gecko) Chrome/128.0.0.0 Safari/537.36" version="24.7.17" pages="3">
  <diagram name="业务架构" id="zM9QdIvhza68kWxz84_e">
    <mxGraphModel dx="2261" dy="1964" grid="1" gridSize="10" guides="1" tooltips="1" connect="1" arrows="1" fold="1" page="1" pageScale="1" pageWidth="827" pageHeight="1169" math="0" shadow="0">
      <root>
        <mxCell id="0" />
        <mxCell id="1" parent="0" />
        <mxCell id="LjXnA-BEZ40m3HbgkDNa-1" value="下单支付" style="rounded=0;whiteSpace=wrap;html=1;verticalAlign=top;dashed=1;labelPosition=center;verticalLabelPosition=middle;align=left;spacingRight=0;shadow=0;glass=0;horizontal=1;" parent="1" vertex="1">
          <mxGeometry x="860" y="60" width="320" height="290" as="geometry" />
        </mxCell>
        <mxCell id="QIBOZXKNHfg8SUblGaOP-3" value="订单场景" style="rounded=0;whiteSpace=wrap;html=1;align=left;verticalAlign=top;" vertex="1" parent="1">
          <mxGeometry x="1070" y="100" width="100" height="230" as="geometry" />
        </mxCell>
        <mxCell id="UXn8RysOJU6ISpbpQMmh-13" value="下单页" style="rounded=0;whiteSpace=wrap;html=1;verticalAlign=top;dashed=1;labelPosition=center;verticalLabelPosition=middle;align=left;spacingRight=0;shadow=0;glass=0;horizontal=1;" parent="1" vertex="1">
          <mxGeometry x="412" y="60" width="428" height="290" as="geometry" />
        </mxCell>
        <mxCell id="UXn8RysOJU6ISpbpQMmh-8" value="购物车" style="rounded=0;whiteSpace=wrap;html=1;verticalAlign=top;dashed=1;labelPosition=center;verticalLabelPosition=middle;align=left;spacingRight=0;shadow=0;glass=0;horizontal=1;" parent="1" vertex="1">
          <mxGeometry x="90" y="60" width="300" height="290" as="geometry" />
        </mxCell>
        <mxCell id="UXn8RysOJU6ISpbpQMmh-14" value="订单列表" style="rounded=0;whiteSpace=wrap;html=1;verticalAlign=top;dashed=1;labelPosition=center;verticalLabelPosition=middle;align=left;spacingRight=0;shadow=0;glass=0;horizontal=1;" parent="1" vertex="1">
          <mxGeometry x="90" y="371" width="750" height="160" as="geometry" />
        </mxCell>
        <mxCell id="UXn8RysOJU6ISpbpQMmh-96" value="订单取消" style="rounded=0;whiteSpace=wrap;html=1;verticalAlign=top;labelPosition=center;verticalLabelPosition=middle;align=left;spacingRight=0;shadow=0;glass=0;horizontal=1;dashed=1;" parent="1" vertex="1">
          <mxGeometry x="1425" y="61" width="160" height="290" as="geometry" />
        </mxCell>
        <mxCell id="UXn8RysOJU6ISpbpQMmh-128" value="风控" style="rounded=0;whiteSpace=wrap;html=1;verticalAlign=top;dashed=1;labelPosition=center;verticalLabelPosition=middle;align=left;spacingRight=0;shadow=0;glass=0;horizontal=1;" parent="1" vertex="1">
          <mxGeometry x="1204" y="371" width="198" height="160" as="geometry" />
        </mxCell>
        <mxCell id="UXn8RysOJU6ISpbpQMmh-133" value="门店制作" style="rounded=0;whiteSpace=wrap;html=1;verticalAlign=top;dashed=1;labelPosition=center;verticalLabelPosition=middle;align=left;spacingRight=0;shadow=0;glass=0;horizontal=1;" parent="1" vertex="1">
          <mxGeometry x="1204" y="61" width="198" height="150" as="geometry" />
        </mxCell>
        <mxCell id="UXn8RysOJU6ISpbpQMmh-134" value="物流配送" style="rounded=0;whiteSpace=wrap;html=1;verticalAlign=top;dashed=1;labelPosition=center;verticalLabelPosition=middle;align=left;spacingRight=0;shadow=0;glass=0;horizontal=1;" parent="1" vertex="1">
          <mxGeometry x="1204" y="228" width="198" height="123" as="geometry" />
        </mxCell>
        <mxCell id="UXn8RysOJU6ISpbpQMmh-154" value="增值服务" style="rounded=0;whiteSpace=wrap;html=1;verticalAlign=top;dashed=1;labelPosition=center;verticalLabelPosition=middle;align=left;spacingRight=0;shadow=0;glass=0;horizontal=1;" parent="1" vertex="1">
          <mxGeometry x="1425" y="371" width="347" height="160" as="geometry" />
        </mxCell>
        <mxCell id="LjXnA-BEZ40m3HbgkDNa-3" value="公域下单" style="rounded=0;whiteSpace=wrap;html=1;verticalAlign=top;dashed=1;labelPosition=center;verticalLabelPosition=middle;align=left;spacingRight=0;shadow=0;glass=0;horizontal=1;" parent="1" vertex="1">
          <mxGeometry x="860" y="370" width="320" height="160" as="geometry" />
        </mxCell>
        <mxCell id="LjXnA-BEZ40m3HbgkDNa-41" value="订单售后" style="rounded=0;whiteSpace=wrap;html=1;verticalAlign=top;dashed=1;labelPosition=center;verticalLabelPosition=middle;align=left;spacingRight=0;shadow=0;glass=0;horizontal=1;" parent="1" vertex="1">
          <mxGeometry x="1612" y="61" width="160" height="290" as="geometry" />
        </mxCell>
        <mxCell id="LjXnA-BEZ40m3HbgkDNa-20" value="购物车处理" style="rounded=0;whiteSpace=wrap;html=1;align=left;verticalAlign=top;" parent="1" vertex="1">
          <mxGeometry x="889" y="262.5" width="171" height="67.5" as="geometry" />
        </mxCell>
        <mxCell id="LjXnA-BEZ40m3HbgkDNa-19" value="随单权益发放" style="rounded=0;whiteSpace=wrap;html=1;align=left;verticalAlign=top;" parent="1" vertex="1">
          <mxGeometry x="889" y="185" width="171" height="65" as="geometry" />
        </mxCell>
        <mxCell id="LjXnA-BEZ40m3HbgkDNa-18" value="资产核销" style="rounded=0;whiteSpace=wrap;html=1;align=left;verticalAlign=top;" parent="1" vertex="1">
          <mxGeometry x="889" y="100" width="171" height="70" as="geometry" />
        </mxCell>
        <mxCell id="UXn8RysOJU6ISpbpQMmh-153" value="门店发起" style="rounded=0;whiteSpace=wrap;html=1;verticalAlign=top;labelPosition=center;verticalLabelPosition=middle;align=left;spacingRight=0;shadow=0;glass=0;horizontal=1;" parent="1" vertex="1">
          <mxGeometry x="1446" y="98" width="119" height="113" as="geometry" />
        </mxCell>
        <mxCell id="UXn8RysOJU6ISpbpQMmh-151" value="客服发起" style="rounded=0;whiteSpace=wrap;html=1;verticalAlign=top;labelPosition=center;verticalLabelPosition=middle;align=left;spacingRight=0;shadow=0;glass=0;horizontal=1;" parent="1" vertex="1">
          <mxGeometry x="1446" y="228" width="119" height="113" as="geometry" />
        </mxCell>
        <mxCell id="UXn8RysOJU6ISpbpQMmh-7" value="拼单购物车" style="rounded=0;whiteSpace=wrap;html=1;align=left;verticalAlign=top;" parent="1" vertex="1">
          <mxGeometry x="120" y="260" width="250" height="70" as="geometry" />
        </mxCell>
        <mxCell id="UXn8RysOJU6ISpbpQMmh-20" value="创建&lt;span style=&quot;background-color: initial;&quot;&gt;拼单购物车&lt;/span&gt;" style="rounded=1;whiteSpace=wrap;html=1;" parent="1" vertex="1">
          <mxGeometry x="130" y="290" width="70" height="30" as="geometry" />
        </mxCell>
        <mxCell id="UXn8RysOJU6ISpbpQMmh-21" value="邀请&lt;span style=&quot;background-color: initial;&quot;&gt;微信好友拼单&lt;/span&gt;" style="rounded=1;whiteSpace=wrap;html=1;" parent="1" vertex="1">
          <mxGeometry x="210" y="290" width="70" height="30" as="geometry" />
        </mxCell>
        <mxCell id="UXn8RysOJU6ISpbpQMmh-23" value="普通购物车" style="rounded=0;whiteSpace=wrap;html=1;align=left;verticalAlign=top;" parent="1" vertex="1">
          <mxGeometry x="120" y="100" width="250" height="140" as="geometry" />
        </mxCell>
        <mxCell id="UXn8RysOJU6ISpbpQMmh-24" value="购物车添加" style="rounded=1;whiteSpace=wrap;html=1;" parent="1" vertex="1">
          <mxGeometry x="130" y="130" width="70" height="30" as="geometry" />
        </mxCell>
        <mxCell id="UXn8RysOJU6ISpbpQMmh-25" value="购物车变更" style="rounded=1;whiteSpace=wrap;html=1;" parent="1" vertex="1">
          <mxGeometry x="210" y="130" width="70" height="30" as="geometry" />
        </mxCell>
        <mxCell id="UXn8RysOJU6ISpbpQMmh-26" value="..." style="rounded=1;whiteSpace=wrap;html=1;" parent="1" vertex="1">
          <mxGeometry x="210" y="180" width="70" height="30" as="geometry" />
        </mxCell>
        <mxCell id="UXn8RysOJU6ISpbpQMmh-27" value="..." style="rounded=1;whiteSpace=wrap;html=1;" parent="1" vertex="1">
          <mxGeometry x="290" y="290" width="70" height="30" as="geometry" />
        </mxCell>
        <mxCell id="UXn8RysOJU6ISpbpQMmh-29" value="营销利益点" style="rounded=1;whiteSpace=wrap;html=1;" parent="1" vertex="1">
          <mxGeometry x="290" y="130" width="70" height="30" as="geometry" />
        </mxCell>
        <mxCell id="UXn8RysOJU6ISpbpQMmh-30" value="凑单" style="rounded=1;whiteSpace=wrap;html=1;" parent="1" vertex="1">
          <mxGeometry x="130" y="180" width="70" height="30" as="geometry" />
        </mxCell>
        <mxCell id="UXn8RysOJU6ISpbpQMmh-53" value="订单&lt;span style=&quot;background-color: initial;&quot;&gt;卡片&lt;/span&gt;" style="rounded=0;whiteSpace=wrap;html=1;align=left;verticalAlign=top;" parent="1" vertex="1">
          <mxGeometry x="120" y="407" width="250" height="110" as="geometry" />
        </mxCell>
        <mxCell id="UXn8RysOJU6ISpbpQMmh-61" value="下单页渲染" style="rounded=0;whiteSpace=wrap;html=1;align=left;verticalAlign=top;" parent="1" vertex="1">
          <mxGeometry x="437" y="100" width="280" height="230" as="geometry" />
        </mxCell>
        <mxCell id="UXn8RysOJU6ISpbpQMmh-62" value="好礼星星选择" style="rounded=0;whiteSpace=wrap;html=1;align=left;verticalAlign=top;" parent="1" vertex="1">
          <mxGeometry x="727" y="220" width="90" height="110" as="geometry" />
        </mxCell>
        <mxCell id="UXn8RysOJU6ISpbpQMmh-63" value="星星&lt;span style=&quot;background-color: initial;&quot;&gt;阶梯&lt;/span&gt;&lt;div&gt;&lt;span style=&quot;background-color: initial;&quot;&gt;规则&lt;/span&gt;&lt;/div&gt;" style="rounded=1;whiteSpace=wrap;html=1;" parent="1" vertex="1">
          <mxGeometry x="737" y="250" width="70" height="30" as="geometry" />
        </mxCell>
        <mxCell id="UXn8RysOJU6ISpbpQMmh-64" value="选星列表" style="rounded=1;whiteSpace=wrap;html=1;" parent="1" vertex="1">
          <mxGeometry x="737" y="290" width="70" height="30" as="geometry" />
        </mxCell>
        <mxCell id="UXn8RysOJU6ISpbpQMmh-65" value="下单页搭售" style="rounded=0;whiteSpace=wrap;html=1;align=left;verticalAlign=top;" parent="1" vertex="1">
          <mxGeometry x="457" y="220" width="250" height="80" as="geometry" />
        </mxCell>
        <mxCell id="UXn8RysOJU6ISpbpQMmh-66" value="营销凑单" style="rounded=1;whiteSpace=wrap;html=1;" parent="1" vertex="1">
          <mxGeometry x="467" y="250" width="70" height="30" as="geometry" />
        </mxCell>
        <mxCell id="UXn8RysOJU6ISpbpQMmh-67" value="SrKit随单购" style="rounded=1;whiteSpace=wrap;html=1;" parent="1" vertex="1">
          <mxGeometry x="547" y="250" width="70" height="30" as="geometry" />
        </mxCell>
        <mxCell id="UXn8RysOJU6ISpbpQMmh-68" value="..." style="rounded=1;whiteSpace=wrap;html=1;" parent="1" vertex="1">
          <mxGeometry x="627" y="250" width="70" height="30" as="geometry" />
        </mxCell>
        <mxCell id="UXn8RysOJU6ISpbpQMmh-69" value="好礼券选择" style="rounded=0;whiteSpace=wrap;html=1;align=left;verticalAlign=top;" parent="1" vertex="1">
          <mxGeometry x="727" y="100" width="90" height="110" as="geometry" />
        </mxCell>
        <mxCell id="UXn8RysOJU6ISpbpQMmh-70" value="SrKit&lt;div&gt;随单购&lt;/div&gt;" style="rounded=1;whiteSpace=wrap;html=1;" parent="1" vertex="1">
          <mxGeometry x="737" y="130" width="70" height="30" as="geometry" />
        </mxCell>
        <mxCell id="UXn8RysOJU6ISpbpQMmh-71" value="选券列表" style="rounded=1;whiteSpace=wrap;html=1;" parent="1" vertex="1">
          <mxGeometry x="737" y="170" width="70" height="30" as="geometry" />
        </mxCell>
        <mxCell id="UXn8RysOJU6ISpbpQMmh-72" value="选店" style="rounded=1;whiteSpace=wrap;html=1;" parent="1" vertex="1">
          <mxGeometry x="467" y="130" width="70" height="30" as="geometry" />
        </mxCell>
        <mxCell id="UXn8RysOJU6ISpbpQMmh-73" value="收货地址" style="rounded=1;whiteSpace=wrap;html=1;" parent="1" vertex="1">
          <mxGeometry x="547" y="130" width="70" height="30" as="geometry" />
        </mxCell>
        <mxCell id="UXn8RysOJU6ISpbpQMmh-74" value="预约单" style="rounded=1;whiteSpace=wrap;html=1;" parent="1" vertex="1">
          <mxGeometry x="627" y="130" width="70" height="30" as="geometry" />
        </mxCell>
        <mxCell id="UXn8RysOJU6ISpbpQMmh-75" value="营销试算" style="rounded=1;whiteSpace=wrap;html=1;" parent="1" vertex="1">
          <mxGeometry x="467" y="170" width="70" height="30" as="geometry" />
        </mxCell>
        <mxCell id="UXn8RysOJU6ISpbpQMmh-76" value="星星试算" style="rounded=1;whiteSpace=wrap;html=1;" parent="1" vertex="1">
          <mxGeometry x="547" y="170" width="70" height="30" as="geometry" />
        </mxCell>
        <mxCell id="UXn8RysOJU6ISpbpQMmh-77" value="预计&lt;div&gt;送达时间&lt;/div&gt;" style="rounded=1;whiteSpace=wrap;html=1;" parent="1" vertex="1">
          <mxGeometry x="627" y="170" width="70" height="30" as="geometry" />
        </mxCell>
        <mxCell id="UXn8RysOJU6ISpbpQMmh-78" value="卡片&lt;span style=&quot;background-color: initial;&quot;&gt;功能&lt;/span&gt;" style="rounded=0;whiteSpace=wrap;html=1;align=left;verticalAlign=top;" parent="1" vertex="1">
          <mxGeometry x="395" y="407" width="410" height="110" as="geometry" />
        </mxCell>
        <mxCell id="UXn8RysOJU6ISpbpQMmh-79" value="取餐卡" style="rounded=1;whiteSpace=wrap;html=1;" parent="1" vertex="1">
          <mxGeometry x="130" y="437" width="70" height="30" as="geometry" />
        </mxCell>
        <mxCell id="UXn8RysOJU6ISpbpQMmh-80" value="啡快" style="rounded=1;whiteSpace=wrap;html=1;" parent="1" vertex="1">
          <mxGeometry x="210" y="437" width="70" height="30" as="geometry" />
        </mxCell>
        <mxCell id="UXn8RysOJU6ISpbpQMmh-81" value="咖啡生活馆&lt;div&gt;MOD/MOP&lt;/div&gt;" style="rounded=1;whiteSpace=wrap;html=1;" parent="1" vertex="1">
          <mxGeometry x="130" y="477" width="70" height="30" as="geometry" />
        </mxCell>
        <mxCell id="UXn8RysOJU6ISpbpQMmh-82" value="星礼卡/包" style="rounded=1;whiteSpace=wrap;html=1;" parent="1" vertex="1">
          <mxGeometry x="210" y="477" width="70" height="30" as="geometry" />
        </mxCell>
        <mxCell id="UXn8RysOJU6ISpbpQMmh-83" value="专星送" style="rounded=1;whiteSpace=wrap;html=1;" parent="1" vertex="1">
          <mxGeometry x="290" y="437" width="70" height="30" as="geometry" />
        </mxCell>
        <mxCell id="UXn8RysOJU6ISpbpQMmh-84" value="1971客厅" style="rounded=1;whiteSpace=wrap;html=1;" parent="1" vertex="1">
          <mxGeometry x="290" y="477" width="70" height="30" as="geometry" />
        </mxCell>
        <mxCell id="UXn8RysOJU6ISpbpQMmh-85" value="立即支付" style="rounded=1;whiteSpace=wrap;html=1;" parent="1" vertex="1">
          <mxGeometry x="405" y="437" width="70" height="30" as="geometry" />
        </mxCell>
        <mxCell id="UXn8RysOJU6ISpbpQMmh-86" value="取消订单" style="rounded=1;whiteSpace=wrap;html=1;" parent="1" vertex="1">
          <mxGeometry x="485" y="437" width="70" height="30" as="geometry" />
        </mxCell>
        <mxCell id="UXn8RysOJU6ISpbpQMmh-87" value="好友带取" style="rounded=1;whiteSpace=wrap;html=1;" parent="1" vertex="1">
          <mxGeometry x="405" y="477" width="70" height="30" as="geometry" />
        </mxCell>
        <mxCell id="UXn8RysOJU6ISpbpQMmh-88" value="确认取餐" style="rounded=1;whiteSpace=wrap;html=1;" parent="1" vertex="1">
          <mxGeometry x="485" y="477" width="70" height="30" as="geometry" />
        </mxCell>
        <mxCell id="UXn8RysOJU6ISpbpQMmh-89" value="分享账单" style="rounded=1;whiteSpace=wrap;html=1;" parent="1" vertex="1">
          <mxGeometry x="565" y="437" width="70" height="30" as="geometry" />
        </mxCell>
        <mxCell id="UXn8RysOJU6ISpbpQMmh-90" value="开发票" style="rounded=1;whiteSpace=wrap;html=1;" parent="1" vertex="1">
          <mxGeometry x="645" y="437" width="70" height="30" as="geometry" />
        </mxCell>
        <mxCell id="UXn8RysOJU6ISpbpQMmh-91" value="再来一单" style="rounded=1;whiteSpace=wrap;html=1;" parent="1" vertex="1">
          <mxGeometry x="565" y="477" width="70" height="30" as="geometry" />
        </mxCell>
        <mxCell id="UXn8RysOJU6ISpbpQMmh-93" value="取餐口令" style="rounded=1;whiteSpace=wrap;html=1;" parent="1" vertex="1">
          <mxGeometry x="725" y="437" width="70" height="30" as="geometry" />
        </mxCell>
        <mxCell id="UXn8RysOJU6ISpbpQMmh-94" value="骑手位置" style="rounded=1;whiteSpace=wrap;html=1;" parent="1" vertex="1">
          <mxGeometry x="645" y="477" width="70" height="30" as="geometry" />
        </mxCell>
        <mxCell id="UXn8RysOJU6ISpbpQMmh-97" value="pos&lt;div&gt;取消订单&lt;/div&gt;" style="rounded=1;whiteSpace=wrap;html=1;" parent="1" vertex="1">
          <mxGeometry x="1473" y="131" width="70" height="30" as="geometry" />
        </mxCell>
        <mxCell id="UXn8RysOJU6ISpbpQMmh-98" value="papp&lt;div&gt;取消订单&lt;/div&gt;" style="rounded=1;whiteSpace=wrap;html=1;" parent="1" vertex="1">
          <mxGeometry x="1473" y="171" width="70" height="30" as="geometry" />
        </mxCell>
        <mxCell id="UXn8RysOJU6ISpbpQMmh-100" value="CCC&lt;div&gt;取消订单&lt;/div&gt;" style="rounded=1;whiteSpace=wrap;html=1;" parent="1" vertex="1">
          <mxGeometry x="1473" y="251" width="70" height="30" as="geometry" />
        </mxCell>
        <mxCell id="UXn8RysOJU6ISpbpQMmh-101" value="CCC&lt;div&gt;赔付订单&lt;/div&gt;" style="rounded=1;whiteSpace=wrap;html=1;" parent="1" vertex="1">
          <mxGeometry x="1473" y="291" width="70" height="30" as="geometry" />
        </mxCell>
        <mxCell id="UXn8RysOJU6ISpbpQMmh-130" value="风控" style="rounded=1;whiteSpace=wrap;html=1;" parent="1" vertex="1">
          <mxGeometry x="1232.5" y="436" width="70" height="30" as="geometry" />
        </mxCell>
        <mxCell id="UXn8RysOJU6ISpbpQMmh-132" value="..." style="rounded=1;whiteSpace=wrap;html=1;" parent="1" vertex="1">
          <mxGeometry x="725" y="477" width="70" height="30" as="geometry" />
        </mxCell>
        <mxCell id="UXn8RysOJU6ISpbpQMmh-135" value="pos接单入机" style="rounded=1;whiteSpace=wrap;html=1;" parent="1" vertex="1">
          <mxGeometry x="1232.5" y="131" width="70" height="30" as="geometry" />
        </mxCell>
        <mxCell id="UXn8RysOJU6ISpbpQMmh-136" value="订单&lt;span style=&quot;background-color: initial;&quot;&gt;杯贴&lt;/span&gt;&lt;div&gt;&lt;span style=&quot;background-color: initial;&quot;&gt;打印&lt;/span&gt;&lt;/div&gt;" style="rounded=1;whiteSpace=wrap;html=1;" parent="1" vertex="1">
          <mxGeometry x="1313.5" y="131" width="70" height="30" as="geometry" />
        </mxCell>
        <mxCell id="UXn8RysOJU6ISpbpQMmh-137" value="扫码出餐" style="rounded=1;whiteSpace=wrap;html=1;" parent="1" vertex="1">
          <mxGeometry x="1232.5" y="171" width="70" height="30" as="geometry" />
        </mxCell>
        <mxCell id="UXn8RysOJU6ISpbpQMmh-140" value="物流同步" style="rounded=1;whiteSpace=wrap;html=1;" parent="1" vertex="1">
          <mxGeometry x="1313.5" y="251" width="70" height="30" as="geometry" />
        </mxCell>
        <mxCell id="UXn8RysOJU6ISpbpQMmh-141" value="查询&lt;div&gt;骑手位置&lt;/div&gt;" style="rounded=1;whiteSpace=wrap;html=1;" parent="1" vertex="1">
          <mxGeometry x="1232.5" y="291" width="70" height="30" as="geometry" />
        </mxCell>
        <mxCell id="UXn8RysOJU6ISpbpQMmh-143" value="预约单" style="rounded=1;whiteSpace=wrap;html=1;" parent="1" vertex="1">
          <mxGeometry x="1313.5" y="171" width="70" height="30" as="geometry" />
        </mxCell>
        <mxCell id="UXn8RysOJU6ISpbpQMmh-147" value="门店接单&lt;div&gt;呼叫配送&lt;/div&gt;" style="rounded=1;whiteSpace=wrap;html=1;" parent="1" vertex="1">
          <mxGeometry x="1232.5" y="251" width="70" height="30" as="geometry" />
        </mxCell>
        <mxCell id="LjXnA-BEZ40m3HbgkDNa-50" value="发放" style="rounded=0;whiteSpace=wrap;html=1;verticalAlign=top;labelPosition=center;verticalLabelPosition=middle;align=left;spacingRight=0;shadow=0;glass=0;horizontal=1;" parent="1" vertex="1">
          <mxGeometry x="1448.5" y="407" width="119" height="111" as="geometry" />
        </mxCell>
        <mxCell id="UXn8RysOJU6ISpbpQMmh-166" value="业务功能" style="rounded=1;whiteSpace=wrap;html=1;strokeColor=none;fontSize=24;" parent="1" vertex="1">
          <mxGeometry x="-110" y="250" width="100" height="30" as="geometry" />
        </mxCell>
        <mxCell id="UXn8RysOJU6ISpbpQMmh-158" value="敏感词" style="rounded=1;whiteSpace=wrap;html=1;" parent="1" vertex="1">
          <mxGeometry x="1313.5" y="436" width="70" height="30" as="geometry" />
        </mxCell>
        <mxCell id="UXn8RysOJU6ISpbpQMmh-159" value="隐私号" style="rounded=1;whiteSpace=wrap;html=1;" parent="1" vertex="1">
          <mxGeometry x="1232.5" y="477" width="70" height="30" as="geometry" />
        </mxCell>
        <mxCell id="UXn8RysOJU6ISpbpQMmh-160" value="..." style="rounded=1;whiteSpace=wrap;html=1;" parent="1" vertex="1">
          <mxGeometry x="1313.5" y="477" width="70" height="30" as="geometry" />
        </mxCell>
        <mxCell id="UXn8RysOJU6ISpbpQMmh-161" value="慢必赔" style="rounded=1;whiteSpace=wrap;html=1;" parent="1" vertex="1">
          <mxGeometry x="1473" y="436" width="70" height="30" as="geometry" />
        </mxCell>
        <mxCell id="UXn8RysOJU6ISpbpQMmh-162" value="订单积星" style="rounded=1;whiteSpace=wrap;html=1;" parent="1" vertex="1">
          <mxGeometry x="1473" y="477" width="70" height="30" as="geometry" />
        </mxCell>
        <mxCell id="UXn8RysOJU6ISpbpQMmh-164" value="" style="endArrow=none;html=1;rounded=0;" parent="1" edge="1">
          <mxGeometry width="50" height="50" relative="1" as="geometry">
            <mxPoint x="-120" y="560" as="sourcePoint" />
            <mxPoint x="1790" y="560" as="targetPoint" />
          </mxGeometry>
        </mxCell>
        <mxCell id="UXn8RysOJU6ISpbpQMmh-167" value="域能力" style="rounded=1;whiteSpace=wrap;html=1;strokeColor=none;fontSize=24;" parent="1" vertex="1">
          <mxGeometry x="-100" y="810" width="100" height="30" as="geometry" />
        </mxCell>
        <mxCell id="LjXnA-BEZ40m3HbgkDNa-4" value="营销&lt;span style=&quot;background-color: initial;&quot;&gt;分摊&lt;/span&gt;" style="rounded=1;whiteSpace=wrap;html=1;" parent="1" vertex="1">
          <mxGeometry x="980" y="437" width="70" height="30" as="geometry" />
        </mxCell>
        <mxCell id="LjXnA-BEZ40m3HbgkDNa-5" value="&lt;div&gt;数据映射&lt;/div&gt;&lt;div&gt;&lt;span style=&quot;background-color: initial;&quot;&gt;转换&lt;/span&gt;&lt;/div&gt;" style="rounded=1;whiteSpace=wrap;html=1;" parent="1" vertex="1">
          <mxGeometry x="890" y="437" width="70" height="30" as="geometry" />
        </mxCell>
        <mxCell id="LjXnA-BEZ40m3HbgkDNa-6" value="库存扣减" style="rounded=1;whiteSpace=wrap;html=1;" parent="1" vertex="1">
          <mxGeometry x="1070" y="437" width="70" height="30" as="geometry" />
        </mxCell>
        <mxCell id="LjXnA-BEZ40m3HbgkDNa-8" value="优惠核销" style="rounded=1;whiteSpace=wrap;html=1;" parent="1" vertex="1">
          <mxGeometry x="900" y="130" width="70" height="30" as="geometry" />
        </mxCell>
        <mxCell id="LjXnA-BEZ40m3HbgkDNa-10" value="库存扣减" style="rounded=1;whiteSpace=wrap;html=1;" parent="1" vertex="1">
          <mxGeometry x="980" y="130" width="70" height="30" as="geometry" />
        </mxCell>
        <mxCell id="LjXnA-BEZ40m3HbgkDNa-11" value="清空购物车" style="rounded=1;whiteSpace=wrap;html=1;" parent="1" vertex="1">
          <mxGeometry x="900" y="290" width="70" height="30" as="geometry" />
        </mxCell>
        <mxCell id="LjXnA-BEZ40m3HbgkDNa-12" value="0元单" style="rounded=1;whiteSpace=wrap;html=1;" parent="1" vertex="1">
          <mxGeometry x="1085" y="130" width="70" height="30" as="geometry" />
        </mxCell>
        <mxCell id="LjXnA-BEZ40m3HbgkDNa-16" value="生成拼单购物车账单" style="rounded=1;whiteSpace=wrap;html=1;" parent="1" vertex="1">
          <mxGeometry x="980" y="290" width="70" height="30" as="geometry" />
        </mxCell>
        <mxCell id="LjXnA-BEZ40m3HbgkDNa-17" value="SrKit发券" style="rounded=1;whiteSpace=wrap;html=1;" parent="1" vertex="1">
          <mxGeometry x="900" y="210" width="70" height="30" as="geometry" />
        </mxCell>
        <mxCell id="LjXnA-BEZ40m3HbgkDNa-21" value="公域平台&lt;div&gt;订单&lt;span style=&quot;background-color: initial;&quot;&gt;同步&lt;/span&gt;&lt;/div&gt;" style="rounded=1;whiteSpace=wrap;html=1;" parent="1" vertex="1">
          <mxGeometry x="890" y="477" width="70" height="30" as="geometry" />
        </mxCell>
        <mxCell id="LjXnA-BEZ40m3HbgkDNa-22" value="..." style="rounded=1;whiteSpace=wrap;html=1;" parent="1" vertex="1">
          <mxGeometry x="980" y="476" width="70" height="30" as="geometry" />
        </mxCell>
        <mxCell id="LjXnA-BEZ40m3HbgkDNa-23" value="菜单加购商品" style="rounded=1;whiteSpace=wrap;html=1;strokeColor=none;fillColor=#dae8fc;" parent="1" vertex="1">
          <mxGeometry x="90" y="-30" width="300" height="60" as="geometry" />
        </mxCell>
        <mxCell id="LjXnA-BEZ40m3HbgkDNa-24" value="购物车去结算" style="rounded=1;whiteSpace=wrap;html=1;strokeColor=none;fillColor=#d5e8d4;" parent="1" vertex="1">
          <mxGeometry x="410" y="-30" width="430" height="60" as="geometry" />
        </mxCell>
        <mxCell id="LjXnA-BEZ40m3HbgkDNa-25" value="下单页支付" style="rounded=1;whiteSpace=wrap;html=1;strokeColor=none;fillColor=#f8cecc;" parent="1" vertex="1">
          <mxGeometry x="860" y="-30" width="320" height="60" as="geometry" />
        </mxCell>
        <mxCell id="LjXnA-BEZ40m3HbgkDNa-26" value="支付完成" style="rounded=1;whiteSpace=wrap;html=1;strokeColor=none;fillColor=#fff2cc;" parent="1" vertex="1">
          <mxGeometry x="1202" y="-30" width="380" height="60" as="geometry" />
        </mxCell>
        <mxCell id="LjXnA-BEZ40m3HbgkDNa-27" value="" style="shape=flexArrow;endArrow=classic;html=1;rounded=0;" parent="1" edge="1">
          <mxGeometry width="50" height="50" relative="1" as="geometry">
            <mxPoint x="357" as="sourcePoint" />
            <mxPoint x="457" as="targetPoint" />
            <Array as="points">
              <mxPoint x="467" />
            </Array>
          </mxGeometry>
        </mxCell>
        <mxCell id="LjXnA-BEZ40m3HbgkDNa-30" value="" style="shape=flexArrow;endArrow=classic;html=1;rounded=0;" parent="1" edge="1">
          <mxGeometry width="50" height="50" relative="1" as="geometry">
            <mxPoint x="805" as="sourcePoint" />
            <mxPoint x="905" as="targetPoint" />
            <Array as="points">
              <mxPoint x="915" />
            </Array>
          </mxGeometry>
        </mxCell>
        <mxCell id="LjXnA-BEZ40m3HbgkDNa-31" value="" style="shape=flexArrow;endArrow=classic;html=1;rounded=0;" parent="1" edge="1">
          <mxGeometry width="50" height="50" relative="1" as="geometry">
            <mxPoint x="1150" as="sourcePoint" />
            <mxPoint x="1250" as="targetPoint" />
            <Array as="points">
              <mxPoint x="1260" />
            </Array>
          </mxGeometry>
        </mxCell>
        <mxCell id="LjXnA-BEZ40m3HbgkDNa-32" value="订单售后" style="rounded=1;whiteSpace=wrap;html=1;strokeColor=none;fillColor=#f5f5f5;fontColor=#333333;" parent="1" vertex="1">
          <mxGeometry x="1612" y="-30" width="160" height="60" as="geometry" />
        </mxCell>
        <mxCell id="LjXnA-BEZ40m3HbgkDNa-42" value="客服发起" style="rounded=0;whiteSpace=wrap;html=1;verticalAlign=top;labelPosition=center;verticalLabelPosition=middle;align=left;spacingRight=0;shadow=0;glass=0;horizontal=1;" parent="1" vertex="1">
          <mxGeometry x="1633" y="100" width="119" height="111" as="geometry" />
        </mxCell>
        <mxCell id="LjXnA-BEZ40m3HbgkDNa-44" value="CCC&lt;div&gt;取消订单&lt;/div&gt;" style="rounded=1;whiteSpace=wrap;html=1;" parent="1" vertex="1">
          <mxGeometry x="1660" y="131" width="70" height="30" as="geometry" />
        </mxCell>
        <mxCell id="LjXnA-BEZ40m3HbgkDNa-45" value="CCC&lt;div&gt;赔付订单&lt;/div&gt;" style="rounded=1;whiteSpace=wrap;html=1;" parent="1" vertex="1">
          <mxGeometry x="1660" y="171" width="70" height="30" as="geometry" />
        </mxCell>
        <mxCell id="LjXnA-BEZ40m3HbgkDNa-48" value="..." style="rounded=1;whiteSpace=wrap;html=1;" parent="1" vertex="1">
          <mxGeometry x="1657" y="251" width="70" height="30" as="geometry" />
        </mxCell>
        <mxCell id="LjXnA-BEZ40m3HbgkDNa-49" value="" style="shape=flexArrow;endArrow=classic;html=1;rounded=0;" parent="1" edge="1">
          <mxGeometry width="50" height="50" relative="1" as="geometry">
            <mxPoint x="1550" as="sourcePoint" />
            <mxPoint x="1650" as="targetPoint" />
            <Array as="points">
              <mxPoint x="1660" />
            </Array>
          </mxGeometry>
        </mxCell>
        <mxCell id="LjXnA-BEZ40m3HbgkDNa-51" value="回收" style="rounded=0;whiteSpace=wrap;html=1;verticalAlign=top;labelPosition=center;verticalLabelPosition=middle;align=left;spacingRight=0;shadow=0;glass=0;horizontal=1;" parent="1" vertex="1">
          <mxGeometry x="1635.5" y="406" width="119" height="111" as="geometry" />
        </mxCell>
        <mxCell id="LjXnA-BEZ40m3HbgkDNa-52" value="慢必赔" style="rounded=1;whiteSpace=wrap;html=1;" parent="1" vertex="1">
          <mxGeometry x="1660" y="435" width="70" height="30" as="geometry" />
        </mxCell>
        <mxCell id="LjXnA-BEZ40m3HbgkDNa-53" value="订单积星" style="rounded=1;whiteSpace=wrap;html=1;" parent="1" vertex="1">
          <mxGeometry x="1660" y="476" width="70" height="30" as="geometry" />
        </mxCell>
        <mxCell id="LjXnA-BEZ40m3HbgkDNa-54" value="..." style="rounded=1;whiteSpace=wrap;html=1;" parent="1" vertex="1">
          <mxGeometry x="980" y="210" width="70" height="30" as="geometry" />
        </mxCell>
        <mxCell id="UXn8RysOJU6ISpbpQMmh-157" value="物流取消" style="rounded=1;whiteSpace=wrap;html=1;" parent="1" vertex="1">
          <mxGeometry x="1313.5" y="291" width="70" height="30" as="geometry" />
        </mxCell>
        <mxCell id="QIBOZXKNHfg8SUblGaOP-1" value="combo套餐" style="rounded=1;whiteSpace=wrap;html=1;" vertex="1" parent="1">
          <mxGeometry x="1085" y="171" width="70" height="30" as="geometry" />
        </mxCell>
        <mxCell id="QIBOZXKNHfg8SUblGaOP-4" value="..." style="rounded=1;whiteSpace=wrap;html=1;" vertex="1" parent="1">
          <mxGeometry x="1085" y="211" width="70" height="30" as="geometry" />
        </mxCell>
      </root>
    </mxGraphModel>
  </diagram>
  <diagram id="-nhuun4TS7gGB4SXzCEc" name="目标技术架构">
    <mxGraphModel dx="1434" dy="795" grid="1" gridSize="10" guides="1" tooltips="1" connect="1" arrows="1" fold="1" page="1" pageScale="1" pageWidth="827" pageHeight="1169" math="0" shadow="0">
      <root>
        <mxCell id="0" />
        <mxCell id="1" parent="0" />
        <mxCell id="mGLGn49qAmS6rsDWipr8-1" value="下单&lt;div&gt;buy&lt;/div&gt;" style="rounded=1;whiteSpace=wrap;html=1;" vertex="1" parent="1">
          <mxGeometry x="180" y="410" width="120" height="60" as="geometry" />
        </mxCell>
        <mxCell id="mGLGn49qAmS6rsDWipr8-2" value="购物车&lt;div&gt;cart&lt;/div&gt;" style="rounded=1;whiteSpace=wrap;html=1;" vertex="1" parent="1">
          <mxGeometry x="40" y="410" width="120" height="140" as="geometry" />
        </mxCell>
        <mxCell id="mGLGn49qAmS6rsDWipr8-3" value="门店制作&lt;div&gt;crafting&lt;/div&gt;" style="rounded=1;whiteSpace=wrap;html=1;" vertex="1" parent="1">
          <mxGeometry x="320" y="410" width="120" height="60" as="geometry" />
        </mxCell>
        <mxCell id="mGLGn49qAmS6rsDWipr8-4" value="业财" style="rounded=1;whiteSpace=wrap;html=1;" vertex="1" parent="1">
          <mxGeometry x="770" y="525" width="120" height="60" as="geometry" />
        </mxCell>
        <mxCell id="mGLGn49qAmS6rsDWipr8-5" value="订单售后&lt;div&gt;after-sales&lt;/div&gt;" style="rounded=1;whiteSpace=wrap;html=1;" vertex="1" parent="1">
          <mxGeometry x="460" y="410" width="120" height="60" as="geometry" />
        </mxCell>
        <mxCell id="mGLGn49qAmS6rsDWipr8-6" value="订单中心&lt;div&gt;order&lt;/div&gt;" style="rounded=1;whiteSpace=wrap;html=1;" vertex="1" parent="1">
          <mxGeometry x="180" y="490" width="400" height="60" as="geometry" />
        </mxCell>
      </root>
    </mxGraphModel>
  </diagram>
  <diagram id="I7Dn7X4eyM0Ji2jNwLBx" name="现状技术架构">
    <mxGraphModel dx="1434" dy="795" grid="1" gridSize="10" guides="1" tooltips="1" connect="1" arrows="1" fold="1" page="1" pageScale="1" pageWidth="827" pageHeight="1169" math="0" shadow="0">
      <root>
        <mxCell id="0" />
        <mxCell id="1" parent="0" />
      </root>
    </mxGraphModel>
  </diagram>
</mxfile>
